:SAMPLES-PER-SECOND 30
:FULLY-SPECIFIED
:DEGREES
171
root  -2.9764 40.4638 0.509869 129.132 -84.8101 -136.999
RightUpLeg  8.17075 -2.41308 2.01671
RightLeg  5.42344 -21.2753 -0.200953
RightFoot  -4.38906 -0.216757 3.0781
RightToes  -3.1126e-008 1.75238e-005 3.56266e-009
Spine  -6.9354 -1.86362 -6.08065
Spine1  24.7688 -4.04305 6.96107
HEad  -2.64863 -4.50056 15.1006
LeftShoulder1  3.5014 -7.21644 -26.5709
LeftArm  -18.0559 -19.8249 -45.7748
LeftForeArm  9.53058 -46.5892 -11.1498
LeftHand  -0.306505 0.248641 6.96004
RightShoulder  2.66257 5.00711 25.2203
RightArm  -16.6275 -18.7929 45.2582
RightForeArm  24.2528 25.3236 4.04932
RightHand  -0.133748 3.1729 -2.08551
LeftUpLeg  5.44128 8.30897 6.58256
LeftLeg  13.9226 8.15076 1.98228
LeftFoot  -9.32063 0.0986893 -2.43562
LeftToes  4.78349e-008 1.46828e-008 1.33736e-009
172
root  -2.66593 40.1696 0.279472 108.609 -84.6785 -117.427
RightUpLeg  7.23046 -2.43746 3.66454
RightLeg  9.03609 -22.9941 -1.48301
RightFoot  -6.01613 -0.188319 3.16327
RightToes  -3.1126e-008 1.75238e-005 3.56266e-009
Spine  -5.91274 -3.03813 -6.64855
Spine1  25.4488 -6.12208 9.67144
HEad  -0.445357 -3.41974 14.9679
LeftShoulder1  3.46454 -8.08343 -23.6957
LeftArm  -19.4103 -35.4864 -43.679
LeftForeArm  -1.32394 -35.791 -8.10522
LeftHand  -0.319789 0.855138 8.17358
RightShoulder  2.58981 5.1529 23.7867
RightArm  -15.8634 -12.6029 44.3592
RightForeArm  21.661 30.1338 5.36326
RightHand  -0.26109 3.65783 -3.56703
LeftUpLeg  2.92272 9.75497 8.62639
LeftLeg  19.7243 4.62064 2.25617
LeftFoot  -11.3561 0.067668 -2.81596
LeftToes  4.78349e-008 1.46828e-008 1.33736e-009
173
root  -2.38186 39.8653 0.11043 97.71 -83.437 -106.983
RightUpLeg  5.75579 -2.35675 5.40357
RightLeg  12.5973 -23.7485 -2.44087
RightFoot  -7.43564 -0.154378 3.04372
RightToes  -3.1126e-008 1.75238e-005 3.56266e-009
Spine  -4.43262 -4.05251 -6.50973
Spine1  24.8673 -8.14286 12.3704
HEad  0.918205 -2.06057 13.7786
LeftShoulder1  3.18221 -8.75425 -19.4533
LeftArm  -22.2991 -46.5144 -38.7253
LeftForeArm  -0.388554 -25.195 -5.80302
LeftHand  -0.335965 1.20542 9.23301
RightShoulder  2.52525 5.40006 22.122
RightArm  -15.6523 -6.61725 44.0191
RightForeArm  17.2094 33.2262 6.37749
RightHand  -0.625329 5.4409 -6.93582
LeftUpLeg  0.209995 9.64748 10.771
LeftLeg  25.0545 3.51404 2.11256
LeftFoot  -13.0042 0.02971 -3.31713
LeftToes  4.78349e-008 1.46828e-008 1.33736e-009
174
root  -2.11815 39.5746 -0.00986055 94.3843 -81.7497 -104.103
RightUpLeg  4.57989 -2.57773 7.04386
RightLeg  15.3285 -23.8493 -2.70038
RightFoot  -8.51845 -0.127991 2.84307
RightToes  -3.1126e-008 1.75238e-005 3.56266e-009
Spine  -2.5904 -4.91028 -5.41653
Spine1  24.114 -9.85542 14.4134
HEad  1.22684 -0.126027 12.6496
LeftShoulder1  2.56805 -8.32985 -14.8327
LeftArm  -31.1066 -54.2146 -30.5514
LeftForeArm  10.9968 -15.8279 -5.57755
LeftHand  -0.37178 0.20035 8.47189
RightShoulder  2.39467 5.47043 20.3376
RightArm  -16.0391 -0.642934 44.516
RightForeArm  11.9379 34.2727 6.96894
RightHand  -1.08697 7.04199 -10.508
LeftUpLeg  -1.98588 10.4378 13.2985
LeftLeg  29.591 2.07558 1.62097
LeftFoot  -14.3736 -0.0161858 -3.86707
LeftToes  4.78349e-008 1.46828e-008 1.33736e-009
175
root  -1.91405 39.349 -0.0881265 95.9262 -80.4164 -106.174
RightUpLeg  3.89992 -3.18046 8.1347
RightLeg  17.293 -22.991 -2.78947
RightFoot  -9.35572 -0.108029 2.57136
RightToes  -3.1126e-008 1.75238e-005 3.56266e-009
Spine  -0.888448 -5.32502 -4.41548
Spine1  23.6021 -11.0463 16.3442
HEad  0.612825 1.50381 10.795
LeftShoulder1  2.01755 -7.42893 -11.2879
LeftArm  -43.2889 -58.6292 -21.8872
LeftForeArm  22.4393 -9.95678 -5.03961
LeftHand  -0.29354 -0.942904 5.39905
RightShoulder  2.35187 5.83964 18.7017
RightArm  -17.7694 3.70551 45.0477
RightForeArm  12.5661 35.4614 7.25561
RightHand  -1.24886 7.32049 -11.7102
LeftUpLeg  -3.00258 10.8777 15.0976
LeftLeg  32.4217 1.62083 1.45644
LeftFoot  -15.437 -0.0598982 -4.26838
LeftToes  4.78349e-008 1.46828e-008 1.33736e-009
176
root  -1.74502 39.2059 -0.135766 100.45 -79.5465 -110.726
RightUpLeg  2.97456 -3.5991 8.8212
RightLeg  18.6436 -21.7778 -3.01583
RightFoot  -9.87777 -0.0971175 2.3609
RightToes  -3.1126e-008 1.75238e-005 3.56266e-009
Spine  -0.0261988 -5.36796 -3.16705
Spine1  23.0246 -11.5516 17.6182
HEad  -0.139772 2.40981 9.50444
LeftShoulder1  1.66064 -6.69841 -8.84743
LeftArm  -49.4455 -60.1374 -16.7696
LeftForeArm  24.0892 -9.14605 -2.75758
LeftHand  -0.18934 -0.131886 4.04593
RightShoulder  2.31798 6.14106 17.4571
RightArm  -19.882 5.79963 45.589
RightForeArm  14.9933 37.5762 7.71733
RightHand  -1.29649 6.9574 -12.4834
LeftUpLeg  -3.61709 11.2647 15.9622
LeftLeg  33.7486 1.85064 1.67811
LeftFoot  -16.266 -0.0930562 -4.42775
LeftToes  4.78349e-008 1.46828e-008 1.33736e-009
177
root  -1.62993 39.1588 -0.156648 105.651 -79.168 -115.442
RightUpLeg  1.89268 -3.63374 9.03798
RightLeg  19.3025 -20.8155 -3.21182
RightFoot  -10.0482 -0.0932684 2.22835
RightToes  -3.1126e-008 1.75238e-005 3.56266e-009
Spine  -0.144643 -5.26799 -1.77908
Spine1  22.8836 -11.6281 17.9738
HEad  -0.855514 3.0792 8.70866
LeftShoulder1  1.40899 -5.7721 -7.64556
LeftArm  -54.1919 -60.9739 -15.2172
LeftForeArm  21.1081 -10.7282 -0.569208
LeftHand  -0.314204 0.623262 7.70359
RightShoulder  2.27006 6.13165 16.946
RightArm  -21.0102 5.73844 45.6646
RightForeArm  16.3014 40.7956 8.61053
RightHand  -1.23315 6.08852 -12.7253
LeftUpLeg  -4.0854 11.0976 15.7732
LeftLeg  33.8104 2.89304 2.43022
LeftFoot  -16.7476 -0.119783 -4.66263
LeftToes  4.78349e-008 1.46828e-008 1.33736e-009
178
root  -1.54631 39.1761 -0.151059 111.379 -78.9667 -120.685
RightUpLeg  1.10675 -3.28703 8.99938
RightLeg  19.4213 -20.1072 -3.32625
RightFoot  -9.87857 -0.0938052 2.09935
RightToes  -3.1126e-008 1.75238e-005 3.56266e-009
Spine  -0.0481812 -5.06364 -0.233618
Spine1  22.227 -11.3205 17.8216
HEad  -0.742836 3.67739 7.92946
LeftShoulder1  1.33565 -5.29049 -7.63017
LeftArm  -57.525 -60.2511 -14.4595
LeftForeArm  16.9366 -14.4788 -0.712287
LeftHand  -0.373298 2.18244 13.36
RightShoulder  2.24978 6.1193 16.7496
RightArm  -21.6377 4.09549 45.6002
RightForeArm  17.7056 43.0978 9.29054
RightHand  -1.11672 5.9357 -11.7245
LeftUpLeg  -4.44993 11.3456 15.3537
LeftLeg  33.6912 3.66812 2.97457
LeftFoot  -16.5896 -0.125051 -4.89512
LeftToes  4.78349e-008 1.46828e-008 1.33736e-009
179
root  -1.46424 39.2118 -0.143868 114.56 -78.8956 -123.568
RightUpLeg  0.760733 -2.79574 8.84138
RightLeg  19.1231 -20.0405 -3.15496
RightFoot  -9.59369 -0.0971342 2.09743
RightToes  -3.1126e-008 1.75238e-005 3.56266e-009
Spine  0.275051 -5.16503 1.77593
Spine1  21.774 -11.0013 16.7499
HEad  -0.580594 4.23772 8.06381
LeftShoulder1  1.29807 -5.14691 -7.42347
LeftArm  -59.0758 -57.7269 -14.0003
LeftForeArm  12.3161 -20.1923 -3.13422
LeftHand  -0.267906 3.57778 16.6836
RightShoulder  2.1765 5.71187 17.0103
RightArm  -20.877 1.83202 45.9247
RightForeArm  18.0022 44.834 9.88656
RightHand  -1.14661 5.96495 -11.9933
LeftUpLeg  -4.62888 11.4044 15.021
LeftLeg  33.3448 4.04619 3.20755
LeftFoot  -16.2263 -0.118332 -5.05092
LeftToes  4.78349e-008 1.46828e-008 1.33736e-009
180
root  -1.3972 39.2727 -0.160809 115.5 -79.0685 -124.324
RightUpLeg  0.850477 -2.0261 8.70976
RightLeg  18.2979 -20.8024 -2.93615
RightFoot  -9.18403 -0.10375 2.2014
RightToes  -3.1126e-008 1.75238e-005 3.56266e-009
Spine  0.0437311 -5.50369 3.26567
Spine1  22.2912 -11.1532 15.8473
HEad  -1.12857 5.60632 7.21053
LeftShoulder1  1.27222 -5.10673 -7.16203
LeftArm  -55.4337 -53.7202 -13.8335
LeftForeArm  4.54568 -28.0908 -5.90206
LeftHand  -0.136214 4.52799 16.9692
RightShoulder  2.14684 5.53025 17.17
RightArm  -20.2813 -0.684489 46.5051
RightForeArm  18.998 45.0168 9.88547
RightHand  -1.05507 5.801 -11.2226
LeftUpLeg  -4.68887 12.0619 14.9546
LeftLeg  32.869 3.49266 2.77141
LeftFoot  -15.8422 -0.113372 -5.29783
LeftToes  4.78349e-008 1.46828e-008 1.33736e-009
181
root  -1.31684 39.3216 -0.194193 115.445 -79.4525 -124.099
RightUpLeg  0.850777 -1.68677 8.50271
RightLeg  17.6335 -21.4094 -2.84019
RightFoot  -8.90957 -0.109808 2.32331
RightToes  -3.1126e-008 1.75238e-005 3.56266e-009
Spine  0.156533 -5.89978 4.23037
Spine1  22.583 -11.5264 15.4844
HEad  -1.55013 6.72577 6.29827
LeftShoulder1  1.35372 -5.43326 -7.58492
LeftArm  -49.5699 -48.1806 -12.0158
LeftForeArm  -3.56552 -37.1965 -8.7213
LeftHand  -0.170837 4.04414 12.8396
RightShoulder  2.06766 5.19097 17.1941
RightArm  -18.8966 -3.54004 47.1346
RightForeArm  19.6212 44.3223 9.59053
RightHand  -0.992782 5.83009 -10.5619
LeftUpLeg  -4.98406 12.7321 14.8199
LeftLeg  32.6541 2.73475 2.229
LeftFoot  -15.2886 -0.0981163 -5.49921
LeftToes  4.78349e-008 1.46828e-008 1.33736e-009
